<mxfile host="app.diagrams.net" agent="Mozilla/5.0 (Windows NT 10.0; Win64; x64) AppleWebKit/537.36 (KHTML, like Gecko) Chrome/134.0.0.0 Safari/537.36" version="26.2.4">
  <diagram name="Modelo-ER" id="4nw62lO1h6hBah5cUrS4">
    <mxGraphModel dx="1100" dy="433" grid="1" gridSize="10" guides="1" tooltips="1" connect="1" arrows="1" fold="1" page="1" pageScale="1" pageWidth="827" pageHeight="1169" math="0" shadow="0">
      <root>
        <mxCell id="0" />
        <mxCell id="1" parent="0" />
        <mxCell id="Tr49al0P86a5uQ38LIpR-7" value="&lt;span style=&quot;font-weight: normal;&quot;&gt;USUARIO&lt;/span&gt;" style="swimlane;fontStyle=1;align=center;verticalAlign=top;childLayout=stackLayout;horizontal=1;startSize=26;horizontalStack=0;resizeParent=1;resizeParentMax=0;resizeLast=0;collapsible=1;marginBottom=0;whiteSpace=wrap;html=1;" vertex="1" parent="1">
          <mxGeometry x="372.5" y="195" width="160" height="60" as="geometry" />
        </mxCell>
        <mxCell id="Tr49al0P86a5uQ38LIpR-9" value="" style="line;strokeWidth=1;fillColor=none;align=left;verticalAlign=middle;spacingTop=-1;spacingLeft=3;spacingRight=3;rotatable=0;labelPosition=right;points=[];portConstraint=eastwest;strokeColor=inherit;" vertex="1" parent="Tr49al0P86a5uQ38LIpR-7">
          <mxGeometry y="26" width="160" height="8" as="geometry" />
        </mxCell>
        <mxCell id="Tr49al0P86a5uQ38LIpR-8" value="+&amp;nbsp;&lt;span style=&quot;text-align: center; text-decoration-line: underline;&quot;&gt;id_usuario&lt;/span&gt;: int (PK)" style="text;strokeColor=none;fillColor=none;align=left;verticalAlign=top;spacingLeft=4;spacingRight=4;overflow=hidden;rotatable=0;points=[[0,0.5],[1,0.5]];portConstraint=eastwest;whiteSpace=wrap;html=1;" vertex="1" parent="Tr49al0P86a5uQ38LIpR-7">
          <mxGeometry y="34" width="160" height="26" as="geometry" />
        </mxCell>
        <mxCell id="Tr49al0P86a5uQ38LIpR-13" value="&lt;span style=&quot;font-weight: 400;&quot;&gt;HISTORIAL_BUSQUEDA&lt;/span&gt;" style="swimlane;fontStyle=1;align=center;verticalAlign=top;childLayout=stackLayout;horizontal=1;startSize=26;horizontalStack=0;resizeParent=1;resizeParentMax=0;resizeLast=0;collapsible=1;marginBottom=0;whiteSpace=wrap;html=1;" vertex="1" parent="1">
          <mxGeometry x="112.5" y="104" width="160" height="116" as="geometry" />
        </mxCell>
        <mxCell id="Tr49al0P86a5uQ38LIpR-24" value="+&amp;nbsp;&lt;span style=&quot;text-align: center;&quot;&gt;termino_busqueda&lt;/span&gt;: string" style="text;strokeColor=none;fillColor=none;align=left;verticalAlign=top;spacingLeft=4;spacingRight=4;overflow=hidden;rotatable=0;points=[[0,0.5],[1,0.5]];portConstraint=eastwest;whiteSpace=wrap;html=1;" vertex="1" parent="Tr49al0P86a5uQ38LIpR-13">
          <mxGeometry y="26" width="160" height="28" as="geometry" />
        </mxCell>
        <mxCell id="Tr49al0P86a5uQ38LIpR-15" value="" style="line;strokeWidth=1;fillColor=none;align=left;verticalAlign=middle;spacingTop=-1;spacingLeft=3;spacingRight=3;rotatable=0;labelPosition=right;points=[];portConstraint=eastwest;strokeColor=inherit;" vertex="1" parent="Tr49al0P86a5uQ38LIpR-13">
          <mxGeometry y="54" width="160" height="10" as="geometry" />
        </mxCell>
        <mxCell id="Tr49al0P86a5uQ38LIpR-25" value="+&amp;nbsp;&lt;span style=&quot;text-align: center; text-decoration-line: underline;&quot;&gt;id_usuario&lt;/span&gt;: int (FK)" style="text;strokeColor=none;fillColor=none;align=left;verticalAlign=top;spacingLeft=4;spacingRight=4;overflow=hidden;rotatable=0;points=[[0,0.5],[1,0.5]];portConstraint=eastwest;whiteSpace=wrap;html=1;" vertex="1" parent="Tr49al0P86a5uQ38LIpR-13">
          <mxGeometry y="64" width="160" height="26" as="geometry" />
        </mxCell>
        <mxCell id="Tr49al0P86a5uQ38LIpR-14" value="+&amp;nbsp;&lt;span style=&quot;text-align: center; text-decoration-line: underline;&quot;&gt;id_historial&lt;/span&gt;: int (PK)" style="text;strokeColor=none;fillColor=none;align=left;verticalAlign=top;spacingLeft=4;spacingRight=4;overflow=hidden;rotatable=0;points=[[0,0.5],[1,0.5]];portConstraint=eastwest;whiteSpace=wrap;html=1;" vertex="1" parent="Tr49al0P86a5uQ38LIpR-13">
          <mxGeometry y="90" width="160" height="26" as="geometry" />
        </mxCell>
        <mxCell id="Tr49al0P86a5uQ38LIpR-19" value="realiza" style="endArrow=open;html=1;endSize=12;startArrow=diamondThin;startSize=14;startFill=0;edgeStyle=orthogonalEdgeStyle;rounded=0;" edge="1" parent="1" source="Tr49al0P86a5uQ38LIpR-25" target="Tr49al0P86a5uQ38LIpR-8">
          <mxGeometry relative="1" as="geometry">
            <mxPoint x="462.5" y="115" as="sourcePoint" />
            <mxPoint x="622.5" y="115" as="targetPoint" />
          </mxGeometry>
        </mxCell>
        <mxCell id="Tr49al0P86a5uQ38LIpR-20" value="n" style="edgeLabel;resizable=0;html=1;align=left;verticalAlign=top;" connectable="0" vertex="1" parent="Tr49al0P86a5uQ38LIpR-19">
          <mxGeometry x="-1" relative="1" as="geometry">
            <mxPoint x="10" as="offset" />
          </mxGeometry>
        </mxCell>
        <mxCell id="Tr49al0P86a5uQ38LIpR-21" value="1" style="edgeLabel;resizable=0;html=1;align=right;verticalAlign=top;" connectable="0" vertex="1" parent="Tr49al0P86a5uQ38LIpR-19">
          <mxGeometry x="1" relative="1" as="geometry">
            <mxPoint x="-12" y="-25" as="offset" />
          </mxGeometry>
        </mxCell>
        <mxCell id="Tr49al0P86a5uQ38LIpR-26" value="&lt;span style=&quot;font-weight: 400;&quot;&gt;IDIOMA&lt;/span&gt;" style="swimlane;fontStyle=1;align=center;verticalAlign=top;childLayout=stackLayout;horizontal=1;startSize=26;horizontalStack=0;resizeParent=1;resizeParentMax=0;resizeLast=0;collapsible=1;marginBottom=0;whiteSpace=wrap;html=1;" vertex="1" parent="1">
          <mxGeometry x="615" y="70" width="160" height="138" as="geometry" />
        </mxCell>
        <mxCell id="Tr49al0P86a5uQ38LIpR-27" value="+&amp;nbsp;&lt;span style=&quot;text-align: center;&quot;&gt;nombre&lt;/span&gt;: string" style="text;strokeColor=none;fillColor=none;align=left;verticalAlign=top;spacingLeft=4;spacingRight=4;overflow=hidden;rotatable=0;points=[[0,0.5],[1,0.5]];portConstraint=eastwest;whiteSpace=wrap;html=1;" vertex="1" parent="Tr49al0P86a5uQ38LIpR-26">
          <mxGeometry y="26" width="160" height="26" as="geometry" />
        </mxCell>
        <mxCell id="Tr49al0P86a5uQ38LIpR-30" value="+&amp;nbsp;&lt;span style=&quot;text-align: center;&quot;&gt;codigo&lt;/span&gt;: string" style="text;strokeColor=none;fillColor=none;align=left;verticalAlign=top;spacingLeft=4;spacingRight=4;overflow=hidden;rotatable=0;points=[[0,0.5],[1,0.5]];portConstraint=eastwest;whiteSpace=wrap;html=1;" vertex="1" parent="Tr49al0P86a5uQ38LIpR-26">
          <mxGeometry y="52" width="160" height="26" as="geometry" />
        </mxCell>
        <mxCell id="Tr49al0P86a5uQ38LIpR-28" value="" style="line;strokeWidth=1;fillColor=none;align=left;verticalAlign=middle;spacingTop=-1;spacingLeft=3;spacingRight=3;rotatable=0;labelPosition=right;points=[];portConstraint=eastwest;strokeColor=inherit;" vertex="1" parent="Tr49al0P86a5uQ38LIpR-26">
          <mxGeometry y="78" width="160" height="8" as="geometry" />
        </mxCell>
        <mxCell id="Tr49al0P86a5uQ38LIpR-31" value="+&amp;nbsp;&lt;span style=&quot;text-align: center; text-decoration-line: underline;&quot;&gt;id_usuario&lt;/span&gt;: int (FK)" style="text;strokeColor=none;fillColor=none;align=left;verticalAlign=top;spacingLeft=4;spacingRight=4;overflow=hidden;rotatable=0;points=[[0,0.5],[1,0.5]];portConstraint=eastwest;whiteSpace=wrap;html=1;" vertex="1" parent="Tr49al0P86a5uQ38LIpR-26">
          <mxGeometry y="86" width="160" height="26" as="geometry" />
        </mxCell>
        <mxCell id="Tr49al0P86a5uQ38LIpR-29" value="+&amp;nbsp;&lt;span style=&quot;text-align: center; text-decoration-line: underline;&quot;&gt;id_idioma&lt;/span&gt;: int (PK)" style="text;strokeColor=none;fillColor=none;align=left;verticalAlign=top;spacingLeft=4;spacingRight=4;overflow=hidden;rotatable=0;points=[[0,0.5],[1,0.5]];portConstraint=eastwest;whiteSpace=wrap;html=1;" vertex="1" parent="Tr49al0P86a5uQ38LIpR-26">
          <mxGeometry y="112" width="160" height="26" as="geometry" />
        </mxCell>
        <mxCell id="Tr49al0P86a5uQ38LIpR-32" value="utiliza" style="endArrow=open;html=1;endSize=12;startArrow=diamondThin;startSize=14;startFill=0;edgeStyle=orthogonalEdgeStyle;rounded=0;" edge="1" parent="1" source="Tr49al0P86a5uQ38LIpR-31" target="Tr49al0P86a5uQ38LIpR-8">
          <mxGeometry relative="1" as="geometry">
            <mxPoint x="283" y="172" as="sourcePoint" />
            <mxPoint x="383" y="235" as="targetPoint" />
          </mxGeometry>
        </mxCell>
        <mxCell id="Tr49al0P86a5uQ38LIpR-33" value="n" style="edgeLabel;resizable=0;html=1;align=left;verticalAlign=top;" connectable="0" vertex="1" parent="Tr49al0P86a5uQ38LIpR-32">
          <mxGeometry x="-1" relative="1" as="geometry">
            <mxPoint x="10" as="offset" />
          </mxGeometry>
        </mxCell>
        <mxCell id="Tr49al0P86a5uQ38LIpR-34" value="1" style="edgeLabel;resizable=0;html=1;align=right;verticalAlign=top;" connectable="0" vertex="1" parent="Tr49al0P86a5uQ38LIpR-32">
          <mxGeometry x="1" relative="1" as="geometry">
            <mxPoint x="20" y="-25" as="offset" />
          </mxGeometry>
        </mxCell>
        <mxCell id="Tr49al0P86a5uQ38LIpR-35" value="1" style="edgeLabel;resizable=0;html=1;align=right;verticalAlign=top;" connectable="0" vertex="1" parent="1">
          <mxGeometry x="609.9966666666664" y="174" as="geometry" />
        </mxCell>
        <mxCell id="Tr49al0P86a5uQ38LIpR-36" value="&lt;span style=&quot;font-weight: 400;&quot;&gt;FAVORITOS&lt;/span&gt;" style="swimlane;fontStyle=1;align=center;verticalAlign=top;childLayout=stackLayout;horizontal=1;startSize=26;horizontalStack=0;resizeParent=1;resizeParentMax=0;resizeLast=0;collapsible=1;marginBottom=0;whiteSpace=wrap;html=1;" vertex="1" parent="1">
          <mxGeometry x="405" y="330" width="160" height="86" as="geometry" />
        </mxCell>
        <mxCell id="Tr49al0P86a5uQ38LIpR-38" value="" style="line;strokeWidth=1;fillColor=none;align=left;verticalAlign=middle;spacingTop=-1;spacingLeft=3;spacingRight=3;rotatable=0;labelPosition=right;points=[];portConstraint=eastwest;strokeColor=inherit;" vertex="1" parent="Tr49al0P86a5uQ38LIpR-36">
          <mxGeometry y="26" width="160" height="8" as="geometry" />
        </mxCell>
        <mxCell id="Tr49al0P86a5uQ38LIpR-44" value="+&amp;nbsp;&lt;span style=&quot;text-align: center; text-decoration-line: underline;&quot;&gt;id_usuario&lt;/span&gt;: int (FK)" style="text;strokeColor=none;fillColor=none;align=left;verticalAlign=top;spacingLeft=4;spacingRight=4;overflow=hidden;rotatable=0;points=[[0,0.5],[1,0.5]];portConstraint=eastwest;whiteSpace=wrap;html=1;" vertex="1" parent="Tr49al0P86a5uQ38LIpR-36">
          <mxGeometry y="34" width="160" height="26" as="geometry" />
        </mxCell>
        <mxCell id="Tr49al0P86a5uQ38LIpR-39" value="+&amp;nbsp;&lt;span style=&quot;text-align: center; text-decoration-line: underline;&quot;&gt;id_favoritos&lt;/span&gt;: int (PK)" style="text;strokeColor=none;fillColor=none;align=left;verticalAlign=top;spacingLeft=4;spacingRight=4;overflow=hidden;rotatable=0;points=[[0,0.5],[1,0.5]];portConstraint=eastwest;whiteSpace=wrap;html=1;" vertex="1" parent="Tr49al0P86a5uQ38LIpR-36">
          <mxGeometry y="60" width="160" height="26" as="geometry" />
        </mxCell>
        <mxCell id="Tr49al0P86a5uQ38LIpR-40" value="guarda" style="endArrow=open;html=1;endSize=12;startArrow=diamondThin;startSize=14;startFill=0;edgeStyle=orthogonalEdgeStyle;rounded=0;" edge="1" parent="1" source="Tr49al0P86a5uQ38LIpR-8" target="Tr49al0P86a5uQ38LIpR-44">
          <mxGeometry relative="1" as="geometry">
            <mxPoint x="290" y="330" as="sourcePoint" />
            <mxPoint x="383" y="252" as="targetPoint" />
            <Array as="points">
              <mxPoint x="380" y="371" />
            </Array>
          </mxGeometry>
        </mxCell>
        <mxCell id="Tr49al0P86a5uQ38LIpR-41" value="1" style="edgeLabel;resizable=0;html=1;align=left;verticalAlign=top;" connectable="0" vertex="1" parent="Tr49al0P86a5uQ38LIpR-40">
          <mxGeometry x="-1" relative="1" as="geometry">
            <mxPoint x="10" as="offset" />
          </mxGeometry>
        </mxCell>
        <mxCell id="Tr49al0P86a5uQ38LIpR-43" value="n" style="text;html=1;align=center;verticalAlign=middle;resizable=0;points=[];autosize=1;strokeColor=none;fillColor=none;" vertex="1" parent="1">
          <mxGeometry x="372.5" y="340" width="30" height="30" as="geometry" />
        </mxCell>
        <mxCell id="Tr49al0P86a5uQ38LIpR-45" value="&lt;span style=&quot;font-weight: normal;&quot;&gt;SERIE&lt;/span&gt;" style="swimlane;fontStyle=1;align=center;verticalAlign=top;childLayout=stackLayout;horizontal=1;startSize=26;horizontalStack=0;resizeParent=1;resizeParentMax=0;resizeLast=0;collapsible=1;marginBottom=0;whiteSpace=wrap;html=1;" vertex="1" parent="1">
          <mxGeometry x="725" y="247" width="160" height="216" as="geometry" />
        </mxCell>
        <mxCell id="Tr49al0P86a5uQ38LIpR-46" value="+ titulo: string" style="text;strokeColor=none;fillColor=none;align=left;verticalAlign=top;spacingLeft=4;spacingRight=4;overflow=hidden;rotatable=0;points=[[0,0.5],[1,0.5]];portConstraint=eastwest;whiteSpace=wrap;html=1;" vertex="1" parent="Tr49al0P86a5uQ38LIpR-45">
          <mxGeometry y="26" width="160" height="26" as="geometry" />
        </mxCell>
        <mxCell id="Tr49al0P86a5uQ38LIpR-51" value="+ descripcion: string" style="text;strokeColor=none;fillColor=none;align=left;verticalAlign=top;spacingLeft=4;spacingRight=4;overflow=hidden;rotatable=0;points=[[0,0.5],[1,0.5]];portConstraint=eastwest;whiteSpace=wrap;html=1;" vertex="1" parent="Tr49al0P86a5uQ38LIpR-45">
          <mxGeometry y="52" width="160" height="26" as="geometry" />
        </mxCell>
        <mxCell id="Tr49al0P86a5uQ38LIpR-50" value="+&amp;nbsp;&lt;span style=&quot;text-align: center;&quot;&gt;fecha_incio&lt;/span&gt;: date" style="text;strokeColor=none;fillColor=none;align=left;verticalAlign=top;spacingLeft=4;spacingRight=4;overflow=hidden;rotatable=0;points=[[0,0.5],[1,0.5]];portConstraint=eastwest;whiteSpace=wrap;html=1;" vertex="1" parent="Tr49al0P86a5uQ38LIpR-45">
          <mxGeometry y="78" width="160" height="26" as="geometry" />
        </mxCell>
        <mxCell id="Tr49al0P86a5uQ38LIpR-52" value="+&amp;nbsp;&lt;span style=&quot;text-align: center;&quot;&gt;fecha_fin&lt;/span&gt;: date" style="text;strokeColor=none;fillColor=none;align=left;verticalAlign=top;spacingLeft=4;spacingRight=4;overflow=hidden;rotatable=0;points=[[0,0.5],[1,0.5]];portConstraint=eastwest;whiteSpace=wrap;html=1;" vertex="1" parent="Tr49al0P86a5uQ38LIpR-45">
          <mxGeometry y="104" width="160" height="26" as="geometry" />
        </mxCell>
        <mxCell id="Tr49al0P86a5uQ38LIpR-49" value="+&amp;nbsp;&lt;span style=&quot;text-align: center;&quot;&gt;URL_imagen&lt;/span&gt;: string" style="text;strokeColor=none;fillColor=none;align=left;verticalAlign=top;spacingLeft=4;spacingRight=4;overflow=hidden;rotatable=0;points=[[0,0.5],[1,0.5]];portConstraint=eastwest;whiteSpace=wrap;html=1;" vertex="1" parent="Tr49al0P86a5uQ38LIpR-45">
          <mxGeometry y="130" width="160" height="26" as="geometry" />
        </mxCell>
        <mxCell id="Tr49al0P86a5uQ38LIpR-47" value="" style="line;strokeWidth=1;fillColor=none;align=left;verticalAlign=middle;spacingTop=-1;spacingLeft=3;spacingRight=3;rotatable=0;labelPosition=right;points=[];portConstraint=eastwest;strokeColor=inherit;" vertex="1" parent="Tr49al0P86a5uQ38LIpR-45">
          <mxGeometry y="156" width="160" height="8" as="geometry" />
        </mxCell>
        <mxCell id="Tr49al0P86a5uQ38LIpR-53" value="+&amp;nbsp;&lt;span style=&quot;text-align: center; text-decoration-line: underline;&quot;&gt;id_serie&lt;/span&gt;: int (PK)" style="text;strokeColor=none;fillColor=none;align=left;verticalAlign=top;spacingLeft=4;spacingRight=4;overflow=hidden;rotatable=0;points=[[0,0.5],[1,0.5]];portConstraint=eastwest;whiteSpace=wrap;html=1;" vertex="1" parent="Tr49al0P86a5uQ38LIpR-45">
          <mxGeometry y="164" width="160" height="26" as="geometry" />
        </mxCell>
        <mxCell id="Tr49al0P86a5uQ38LIpR-56" value="+&amp;nbsp;&lt;span style=&quot;text-align: center; text-decoration-line: underline;&quot;&gt;id_favoritos&lt;/span&gt;: int (FK)" style="text;strokeColor=none;fillColor=none;align=left;verticalAlign=top;spacingLeft=4;spacingRight=4;overflow=hidden;rotatable=0;points=[[0,0.5],[1,0.5]];portConstraint=eastwest;whiteSpace=wrap;html=1;" vertex="1" parent="Tr49al0P86a5uQ38LIpR-45">
          <mxGeometry y="190" width="160" height="26" as="geometry" />
        </mxCell>
        <mxCell id="Tr49al0P86a5uQ38LIpR-54" value="marca" style="endArrow=open;html=1;endSize=12;startArrow=diamondThin;startSize=14;startFill=0;edgeStyle=orthogonalEdgeStyle;rounded=0;" edge="1" parent="1" source="Tr49al0P86a5uQ38LIpR-39" target="Tr49al0P86a5uQ38LIpR-56">
          <mxGeometry relative="1" as="geometry">
            <mxPoint x="445" y="418" as="sourcePoint" />
            <mxPoint x="265" y="522" as="targetPoint" />
            <Array as="points">
              <mxPoint x="695" y="403" />
              <mxPoint x="695" y="450" />
            </Array>
          </mxGeometry>
        </mxCell>
        <mxCell id="Tr49al0P86a5uQ38LIpR-55" value="n" style="edgeLabel;resizable=0;html=1;align=left;verticalAlign=top;" connectable="0" vertex="1" parent="Tr49al0P86a5uQ38LIpR-54">
          <mxGeometry x="-1" relative="1" as="geometry">
            <mxPoint x="12" y="-26" as="offset" />
          </mxGeometry>
        </mxCell>
        <mxCell id="Tr49al0P86a5uQ38LIpR-57" value="n" style="edgeLabel;resizable=0;html=1;align=left;verticalAlign=top;" connectable="0" vertex="1" parent="1">
          <mxGeometry x="705" y="419.99800000000005" as="geometry" />
        </mxCell>
        <mxCell id="Tr49al0P86a5uQ38LIpR-60" value="&lt;span style=&quot;font-weight: 400;&quot;&gt;PERSONAJE&lt;/span&gt;" style="swimlane;fontStyle=1;align=center;verticalAlign=top;childLayout=stackLayout;horizontal=1;startSize=26;horizontalStack=0;resizeParent=1;resizeParentMax=0;resizeLast=0;collapsible=1;marginBottom=0;whiteSpace=wrap;html=1;" vertex="1" parent="1">
          <mxGeometry x="85" y="294" width="160" height="216" as="geometry" />
        </mxCell>
        <mxCell id="Tr49al0P86a5uQ38LIpR-69" value="+ nombre: string" style="text;strokeColor=none;fillColor=none;align=left;verticalAlign=top;spacingLeft=4;spacingRight=4;overflow=hidden;rotatable=0;points=[[0,0.5],[1,0.5]];portConstraint=eastwest;whiteSpace=wrap;html=1;" vertex="1" parent="Tr49al0P86a5uQ38LIpR-60">
          <mxGeometry y="26" width="160" height="26" as="geometry" />
        </mxCell>
        <mxCell id="Tr49al0P86a5uQ38LIpR-70" value="+ descripcion: string" style="text;strokeColor=none;fillColor=none;align=left;verticalAlign=top;spacingLeft=4;spacingRight=4;overflow=hidden;rotatable=0;points=[[0,0.5],[1,0.5]];portConstraint=eastwest;whiteSpace=wrap;html=1;" vertex="1" parent="Tr49al0P86a5uQ38LIpR-60">
          <mxGeometry y="52" width="160" height="26" as="geometry" />
        </mxCell>
        <mxCell id="Tr49al0P86a5uQ38LIpR-72" value="+&amp;nbsp;&lt;span style=&quot;text-align: center;&quot;&gt;series&lt;/span&gt;: string" style="text;strokeColor=none;fillColor=none;align=left;verticalAlign=top;spacingLeft=4;spacingRight=4;overflow=hidden;rotatable=0;points=[[0,0.5],[1,0.5]];portConstraint=eastwest;whiteSpace=wrap;html=1;" vertex="1" parent="Tr49al0P86a5uQ38LIpR-60">
          <mxGeometry y="78" width="160" height="26" as="geometry" />
        </mxCell>
        <mxCell id="Tr49al0P86a5uQ38LIpR-71" value="+&amp;nbsp;&lt;span style=&quot;text-align: center;&quot;&gt;comic&lt;/span&gt;: string" style="text;strokeColor=none;fillColor=none;align=left;verticalAlign=top;spacingLeft=4;spacingRight=4;overflow=hidden;rotatable=0;points=[[0,0.5],[1,0.5]];portConstraint=eastwest;whiteSpace=wrap;html=1;" vertex="1" parent="Tr49al0P86a5uQ38LIpR-60">
          <mxGeometry y="104" width="160" height="26" as="geometry" />
        </mxCell>
        <mxCell id="Tr49al0P86a5uQ38LIpR-73" value="+&amp;nbsp;&lt;span style=&quot;text-align: center;&quot;&gt;URL_imagen&lt;/span&gt;: string" style="text;strokeColor=none;fillColor=none;align=left;verticalAlign=top;spacingLeft=4;spacingRight=4;overflow=hidden;rotatable=0;points=[[0,0.5],[1,0.5]];portConstraint=eastwest;whiteSpace=wrap;html=1;" vertex="1" parent="Tr49al0P86a5uQ38LIpR-60">
          <mxGeometry y="130" width="160" height="26" as="geometry" />
        </mxCell>
        <mxCell id="Tr49al0P86a5uQ38LIpR-62" value="" style="line;strokeWidth=1;fillColor=none;align=left;verticalAlign=middle;spacingTop=-1;spacingLeft=3;spacingRight=3;rotatable=0;labelPosition=right;points=[];portConstraint=eastwest;strokeColor=inherit;" vertex="1" parent="Tr49al0P86a5uQ38LIpR-60">
          <mxGeometry y="156" width="160" height="8" as="geometry" />
        </mxCell>
        <mxCell id="Tr49al0P86a5uQ38LIpR-68" value="+&amp;nbsp;&lt;span style=&quot;text-align: center; text-decoration-line: underline;&quot;&gt;id_personaje&lt;/span&gt;: int (PK)" style="text;strokeColor=none;fillColor=none;align=left;verticalAlign=top;spacingLeft=4;spacingRight=4;overflow=hidden;rotatable=0;points=[[0,0.5],[1,0.5]];portConstraint=eastwest;whiteSpace=wrap;html=1;" vertex="1" parent="Tr49al0P86a5uQ38LIpR-60">
          <mxGeometry y="164" width="160" height="26" as="geometry" />
        </mxCell>
        <mxCell id="Tr49al0P86a5uQ38LIpR-67" value="+&amp;nbsp;&lt;span style=&quot;text-align: center; text-decoration-line: underline;&quot;&gt;id_favoritos&lt;/span&gt;: int (FK)" style="text;strokeColor=none;fillColor=none;align=left;verticalAlign=top;spacingLeft=4;spacingRight=4;overflow=hidden;rotatable=0;points=[[0,0.5],[1,0.5]];portConstraint=eastwest;whiteSpace=wrap;html=1;" vertex="1" parent="Tr49al0P86a5uQ38LIpR-60">
          <mxGeometry y="190" width="160" height="26" as="geometry" />
        </mxCell>
        <mxCell id="Tr49al0P86a5uQ38LIpR-64" value="marca" style="endArrow=open;html=1;endSize=12;startArrow=diamondThin;startSize=14;startFill=0;edgeStyle=orthogonalEdgeStyle;rounded=0;" edge="1" parent="1" source="Tr49al0P86a5uQ38LIpR-39" target="Tr49al0P86a5uQ38LIpR-67">
          <mxGeometry relative="1" as="geometry">
            <mxPoint x="350" y="520" as="sourcePoint" />
            <mxPoint x="285" y="536" as="targetPoint" />
          </mxGeometry>
        </mxCell>
        <mxCell id="Tr49al0P86a5uQ38LIpR-65" value="n" style="edgeLabel;resizable=0;html=1;align=left;verticalAlign=top;" connectable="0" vertex="1" parent="Tr49al0P86a5uQ38LIpR-64">
          <mxGeometry x="-1" relative="1" as="geometry">
            <mxPoint x="-45" y="7" as="offset" />
          </mxGeometry>
        </mxCell>
        <mxCell id="Tr49al0P86a5uQ38LIpR-66" value="n" style="edgeLabel;resizable=0;html=1;align=right;verticalAlign=top;" connectable="0" vertex="1" parent="Tr49al0P86a5uQ38LIpR-64">
          <mxGeometry x="1" relative="1" as="geometry">
            <mxPoint x="25" y="-26" as="offset" />
          </mxGeometry>
        </mxCell>
        <mxCell id="Tr49al0P86a5uQ38LIpR-75" value="&lt;span style=&quot;font-weight: 400;&quot;&gt;COMIC&lt;/span&gt;" style="swimlane;fontStyle=1;align=center;verticalAlign=top;childLayout=stackLayout;horizontal=1;startSize=26;horizontalStack=0;resizeParent=1;resizeParentMax=0;resizeLast=0;collapsible=1;marginBottom=0;whiteSpace=wrap;html=1;" vertex="1" parent="1">
          <mxGeometry x="960" y="400" width="160" height="268" as="geometry" />
        </mxCell>
        <mxCell id="Tr49al0P86a5uQ38LIpR-81" value="+&amp;nbsp;&lt;span style=&quot;text-align: center;&quot;&gt;titulo&lt;/span&gt;: string" style="text;strokeColor=none;fillColor=none;align=left;verticalAlign=top;spacingLeft=4;spacingRight=4;overflow=hidden;rotatable=0;points=[[0,0.5],[1,0.5]];portConstraint=eastwest;whiteSpace=wrap;html=1;" vertex="1" parent="Tr49al0P86a5uQ38LIpR-75">
          <mxGeometry y="26" width="160" height="26" as="geometry" />
        </mxCell>
        <mxCell id="Tr49al0P86a5uQ38LIpR-80" value="+ descripcion: string" style="text;strokeColor=none;fillColor=none;align=left;verticalAlign=top;spacingLeft=4;spacingRight=4;overflow=hidden;rotatable=0;points=[[0,0.5],[1,0.5]];portConstraint=eastwest;whiteSpace=wrap;html=1;" vertex="1" parent="Tr49al0P86a5uQ38LIpR-75">
          <mxGeometry y="52" width="160" height="26" as="geometry" />
        </mxCell>
        <mxCell id="Tr49al0P86a5uQ38LIpR-79" value="+ num_edicion: int" style="text;strokeColor=none;fillColor=none;align=left;verticalAlign=top;spacingLeft=4;spacingRight=4;overflow=hidden;rotatable=0;points=[[0,0.5],[1,0.5]];portConstraint=eastwest;whiteSpace=wrap;html=1;" vertex="1" parent="Tr49al0P86a5uQ38LIpR-75">
          <mxGeometry y="78" width="160" height="26" as="geometry" />
        </mxCell>
        <mxCell id="Tr49al0P86a5uQ38LIpR-85" value="+&amp;nbsp;&lt;span style=&quot;text-align: center;&quot;&gt;fecha_pub&lt;/span&gt;: date" style="text;strokeColor=none;fillColor=none;align=left;verticalAlign=top;spacingLeft=4;spacingRight=4;overflow=hidden;rotatable=0;points=[[0,0.5],[1,0.5]];portConstraint=eastwest;whiteSpace=wrap;html=1;" vertex="1" parent="Tr49al0P86a5uQ38LIpR-75">
          <mxGeometry y="104" width="160" height="26" as="geometry" />
        </mxCell>
        <mxCell id="Tr49al0P86a5uQ38LIpR-84" value="+&amp;nbsp;&lt;span style=&quot;text-align: center;&quot;&gt;URL_imagen&lt;/span&gt;: string" style="text;strokeColor=none;fillColor=none;align=left;verticalAlign=top;spacingLeft=4;spacingRight=4;overflow=hidden;rotatable=0;points=[[0,0.5],[1,0.5]];portConstraint=eastwest;whiteSpace=wrap;html=1;" vertex="1" parent="Tr49al0P86a5uQ38LIpR-75">
          <mxGeometry y="130" width="160" height="26" as="geometry" />
        </mxCell>
        <mxCell id="Tr49al0P86a5uQ38LIpR-77" value="" style="line;strokeWidth=1;fillColor=none;align=left;verticalAlign=middle;spacingTop=-1;spacingLeft=3;spacingRight=3;rotatable=0;labelPosition=right;points=[];portConstraint=eastwest;strokeColor=inherit;" vertex="1" parent="Tr49al0P86a5uQ38LIpR-75">
          <mxGeometry y="156" width="160" height="8" as="geometry" />
        </mxCell>
        <mxCell id="Tr49al0P86a5uQ38LIpR-94" value="+&amp;nbsp;&lt;span style=&quot;text-align: center; text-decoration-line: underline;&quot;&gt;id_serie&lt;/span&gt;: int (FK)" style="text;strokeColor=none;fillColor=none;align=left;verticalAlign=top;spacingLeft=4;spacingRight=4;overflow=hidden;rotatable=0;points=[[0,0.5],[1,0.5]];portConstraint=eastwest;whiteSpace=wrap;html=1;" vertex="1" parent="Tr49al0P86a5uQ38LIpR-75">
          <mxGeometry y="164" width="160" height="26" as="geometry" />
        </mxCell>
        <mxCell id="Tr49al0P86a5uQ38LIpR-82" value="+&amp;nbsp;&lt;span style=&quot;text-align: center; text-decoration-line: underline;&quot;&gt;id_favoritos&lt;/span&gt;: int (FK)" style="text;strokeColor=none;fillColor=none;align=left;verticalAlign=top;spacingLeft=4;spacingRight=4;overflow=hidden;rotatable=0;points=[[0,0.5],[1,0.5]];portConstraint=eastwest;whiteSpace=wrap;html=1;" vertex="1" parent="Tr49al0P86a5uQ38LIpR-75">
          <mxGeometry y="190" width="160" height="26" as="geometry" />
        </mxCell>
        <mxCell id="Tr49al0P86a5uQ38LIpR-83" value="+&amp;nbsp;&lt;span style=&quot;text-align: center; text-decoration-line: underline;&quot;&gt;id_comic&lt;/span&gt;: int (PK)" style="text;strokeColor=none;fillColor=none;align=left;verticalAlign=top;spacingLeft=4;spacingRight=4;overflow=hidden;rotatable=0;points=[[0,0.5],[1,0.5]];portConstraint=eastwest;whiteSpace=wrap;html=1;" vertex="1" parent="Tr49al0P86a5uQ38LIpR-75">
          <mxGeometry y="216" width="160" height="26" as="geometry" />
        </mxCell>
        <mxCell id="Tr49al0P86a5uQ38LIpR-95" value="+&amp;nbsp;&lt;span style=&quot;text-align: center; text-decoration-line: underline;&quot;&gt;id_personaje&lt;/span&gt;: int (FK)" style="text;strokeColor=none;fillColor=none;align=left;verticalAlign=top;spacingLeft=4;spacingRight=4;overflow=hidden;rotatable=0;points=[[0,0.5],[1,0.5]];portConstraint=eastwest;whiteSpace=wrap;html=1;" vertex="1" parent="Tr49al0P86a5uQ38LIpR-75">
          <mxGeometry y="242" width="160" height="26" as="geometry" />
        </mxCell>
        <mxCell id="Tr49al0P86a5uQ38LIpR-87" value="pertenece" style="endArrow=open;html=1;endSize=12;startArrow=diamondThin;startSize=14;startFill=0;edgeStyle=orthogonalEdgeStyle;rounded=0;" edge="1" parent="1" source="Tr49al0P86a5uQ38LIpR-56" target="Tr49al0P86a5uQ38LIpR-94">
          <mxGeometry relative="1" as="geometry">
            <mxPoint x="640" y="590" as="sourcePoint" />
            <mxPoint x="800" y="590" as="targetPoint" />
          </mxGeometry>
        </mxCell>
        <mxCell id="Tr49al0P86a5uQ38LIpR-88" value="n" style="edgeLabel;resizable=0;html=1;align=left;verticalAlign=top;" connectable="0" vertex="1" parent="Tr49al0P86a5uQ38LIpR-87">
          <mxGeometry x="-1" relative="1" as="geometry" />
        </mxCell>
        <mxCell id="Tr49al0P86a5uQ38LIpR-89" value="1" style="edgeLabel;resizable=0;html=1;align=right;verticalAlign=top;" connectable="0" vertex="1" parent="Tr49al0P86a5uQ38LIpR-87">
          <mxGeometry x="1" relative="1" as="geometry">
            <mxPoint x="-10" y="-31" as="offset" />
          </mxGeometry>
        </mxCell>
        <mxCell id="Tr49al0P86a5uQ38LIpR-91" value="marca" style="endArrow=open;html=1;endSize=12;startArrow=diamondThin;startSize=14;startFill=0;edgeStyle=orthogonalEdgeStyle;rounded=0;" edge="1" parent="1" source="Tr49al0P86a5uQ38LIpR-39" target="Tr49al0P86a5uQ38LIpR-82">
          <mxGeometry relative="1" as="geometry">
            <mxPoint x="600" y="550" as="sourcePoint" />
            <mxPoint x="760" y="550" as="targetPoint" />
            <Array as="points">
              <mxPoint x="540" y="607" />
            </Array>
          </mxGeometry>
        </mxCell>
        <mxCell id="Tr49al0P86a5uQ38LIpR-92" value="n" style="edgeLabel;resizable=0;html=1;align=left;verticalAlign=top;" connectable="0" vertex="1" parent="Tr49al0P86a5uQ38LIpR-91">
          <mxGeometry x="-1" relative="1" as="geometry">
            <mxPoint x="10" y="24" as="offset" />
          </mxGeometry>
        </mxCell>
        <mxCell id="Tr49al0P86a5uQ38LIpR-93" value="n" style="edgeLabel;resizable=0;html=1;align=right;verticalAlign=top;" connectable="0" vertex="1" parent="Tr49al0P86a5uQ38LIpR-91">
          <mxGeometry x="1" relative="1" as="geometry">
            <mxPoint x="-20" y="-22" as="offset" />
          </mxGeometry>
        </mxCell>
        <mxCell id="Tr49al0P86a5uQ38LIpR-96" value="aparece" style="endArrow=open;html=1;endSize=12;startArrow=diamondThin;startSize=14;startFill=0;edgeStyle=orthogonalEdgeStyle;rounded=0;" edge="1" parent="1" source="Tr49al0P86a5uQ38LIpR-67" target="Tr49al0P86a5uQ38LIpR-95">
          <mxGeometry relative="1" as="geometry">
            <mxPoint x="350" y="630" as="sourcePoint" />
            <mxPoint x="980" y="659" as="targetPoint" />
            <Array as="points">
              <mxPoint x="180" y="651" />
            </Array>
          </mxGeometry>
        </mxCell>
        <mxCell id="Tr49al0P86a5uQ38LIpR-97" value="n" style="edgeLabel;resizable=0;html=1;align=left;verticalAlign=top;" connectable="0" vertex="1" parent="Tr49al0P86a5uQ38LIpR-96">
          <mxGeometry x="-1" relative="1" as="geometry">
            <mxPoint x="10" y="10" as="offset" />
          </mxGeometry>
        </mxCell>
        <mxCell id="Tr49al0P86a5uQ38LIpR-98" value="n" style="edgeLabel;resizable=0;html=1;align=right;verticalAlign=top;" connectable="0" vertex="1" parent="Tr49al0P86a5uQ38LIpR-96">
          <mxGeometry x="1" relative="1" as="geometry">
            <mxPoint x="-20" y="-21" as="offset" />
          </mxGeometry>
        </mxCell>
        <mxCell id="Tr49al0P86a5uQ38LIpR-99" value="&lt;span style=&quot;font-weight: 400;&quot;&gt;CREADOR&lt;/span&gt;" style="swimlane;fontStyle=1;align=center;verticalAlign=top;childLayout=stackLayout;horizontal=1;startSize=26;horizontalStack=0;resizeParent=1;resizeParentMax=0;resizeLast=0;collapsible=1;marginBottom=0;whiteSpace=wrap;html=1;" vertex="1" parent="1">
          <mxGeometry x="960" y="710" width="160" height="190" as="geometry" />
        </mxCell>
        <mxCell id="Tr49al0P86a5uQ38LIpR-105" value="+&amp;nbsp;&lt;span style=&quot;text-align: center;&quot;&gt;nombre&lt;/span&gt;: string" style="text;strokeColor=none;fillColor=none;align=left;verticalAlign=top;spacingLeft=4;spacingRight=4;overflow=hidden;rotatable=0;points=[[0,0.5],[1,0.5]];portConstraint=eastwest;whiteSpace=wrap;html=1;" vertex="1" parent="Tr49al0P86a5uQ38LIpR-99">
          <mxGeometry y="26" width="160" height="26" as="geometry" />
        </mxCell>
        <mxCell id="Tr49al0P86a5uQ38LIpR-104" value="+ rol: string" style="text;strokeColor=none;fillColor=none;align=left;verticalAlign=top;spacingLeft=4;spacingRight=4;overflow=hidden;rotatable=0;points=[[0,0.5],[1,0.5]];portConstraint=eastwest;whiteSpace=wrap;html=1;" vertex="1" parent="Tr49al0P86a5uQ38LIpR-99">
          <mxGeometry y="52" width="160" height="26" as="geometry" />
        </mxCell>
        <mxCell id="Tr49al0P86a5uQ38LIpR-103" value="+ comics_creados: string" style="text;strokeColor=none;fillColor=none;align=left;verticalAlign=top;spacingLeft=4;spacingRight=4;overflow=hidden;rotatable=0;points=[[0,0.5],[1,0.5]];portConstraint=eastwest;whiteSpace=wrap;html=1;" vertex="1" parent="Tr49al0P86a5uQ38LIpR-99">
          <mxGeometry y="78" width="160" height="26" as="geometry" />
        </mxCell>
        <mxCell id="Tr49al0P86a5uQ38LIpR-106" value="+&amp;nbsp;&lt;span style=&quot;text-align: center;&quot;&gt;URL_imagen&lt;/span&gt;: string" style="text;strokeColor=none;fillColor=none;align=left;verticalAlign=top;spacingLeft=4;spacingRight=4;overflow=hidden;rotatable=0;points=[[0,0.5],[1,0.5]];portConstraint=eastwest;whiteSpace=wrap;html=1;" vertex="1" parent="Tr49al0P86a5uQ38LIpR-99">
          <mxGeometry y="104" width="160" height="26" as="geometry" />
        </mxCell>
        <mxCell id="Tr49al0P86a5uQ38LIpR-101" value="" style="line;strokeWidth=1;fillColor=none;align=left;verticalAlign=middle;spacingTop=-1;spacingLeft=3;spacingRight=3;rotatable=0;labelPosition=right;points=[];portConstraint=eastwest;strokeColor=inherit;" vertex="1" parent="Tr49al0P86a5uQ38LIpR-99">
          <mxGeometry y="130" width="160" height="8" as="geometry" />
        </mxCell>
        <mxCell id="Tr49al0P86a5uQ38LIpR-107" value="+&amp;nbsp;&lt;span style=&quot;text-align: center; text-decoration-line: underline;&quot;&gt;id_creador&lt;/span&gt;: int (PK)" style="text;strokeColor=none;fillColor=none;align=left;verticalAlign=top;spacingLeft=4;spacingRight=4;overflow=hidden;rotatable=0;points=[[0,0.5],[1,0.5]];portConstraint=eastwest;whiteSpace=wrap;html=1;" vertex="1" parent="Tr49al0P86a5uQ38LIpR-99">
          <mxGeometry y="138" width="160" height="26" as="geometry" />
        </mxCell>
        <mxCell id="Tr49al0P86a5uQ38LIpR-112" value="+&amp;nbsp;&lt;span style=&quot;text-align: center; text-decoration-line: underline;&quot;&gt;id_comic&lt;/span&gt;: int (FK)" style="text;strokeColor=none;fillColor=none;align=left;verticalAlign=top;spacingLeft=4;spacingRight=4;overflow=hidden;rotatable=0;points=[[0,0.5],[1,0.5]];portConstraint=eastwest;whiteSpace=wrap;html=1;" vertex="1" parent="Tr49al0P86a5uQ38LIpR-99">
          <mxGeometry y="164" width="160" height="26" as="geometry" />
        </mxCell>
        <mxCell id="Tr49al0P86a5uQ38LIpR-108" value="tiene" style="endArrow=open;html=1;endSize=12;startArrow=diamondThin;startSize=14;startFill=0;edgeStyle=orthogonalEdgeStyle;rounded=0;" edge="1" parent="1" source="Tr49al0P86a5uQ38LIpR-83" target="Tr49al0P86a5uQ38LIpR-112">
          <mxGeometry relative="1" as="geometry">
            <mxPoint x="830" y="910" as="sourcePoint" />
            <mxPoint x="990" y="910" as="targetPoint" />
            <Array as="points">
              <mxPoint x="1200" y="633" />
              <mxPoint x="1200" y="932" />
            </Array>
          </mxGeometry>
        </mxCell>
        <mxCell id="Tr49al0P86a5uQ38LIpR-109" value="n" style="edgeLabel;resizable=0;html=1;align=left;verticalAlign=top;" connectable="0" vertex="1" parent="Tr49al0P86a5uQ38LIpR-108">
          <mxGeometry x="-1" relative="1" as="geometry" />
        </mxCell>
        <mxCell id="Tr49al0P86a5uQ38LIpR-110" value="n" style="edgeLabel;resizable=0;html=1;align=right;verticalAlign=top;" connectable="0" vertex="1" parent="Tr49al0P86a5uQ38LIpR-108">
          <mxGeometry x="1" relative="1" as="geometry">
            <mxPoint x="30" y="-1" as="offset" />
          </mxGeometry>
        </mxCell>
        <mxCell id="Tr49al0P86a5uQ38LIpR-113" value="&lt;span style=&quot;font-weight: 400;&quot;&gt;EVENTO&lt;/span&gt;" style="swimlane;fontStyle=1;align=center;verticalAlign=top;childLayout=stackLayout;horizontal=1;startSize=26;horizontalStack=0;resizeParent=1;resizeParentMax=0;resizeLast=0;collapsible=1;marginBottom=0;whiteSpace=wrap;html=1;" vertex="1" parent="1">
          <mxGeometry x="220" y="700" width="160" height="268" as="geometry" />
        </mxCell>
        <mxCell id="Tr49al0P86a5uQ38LIpR-120" value="+&amp;nbsp;&lt;span style=&quot;text-align: center;&quot;&gt;titulo&lt;/span&gt;: string" style="text;strokeColor=none;fillColor=none;align=left;verticalAlign=top;spacingLeft=4;spacingRight=4;overflow=hidden;rotatable=0;points=[[0,0.5],[1,0.5]];portConstraint=eastwest;whiteSpace=wrap;html=1;" vertex="1" parent="Tr49al0P86a5uQ38LIpR-113">
          <mxGeometry y="26" width="160" height="26" as="geometry" />
        </mxCell>
        <mxCell id="Tr49al0P86a5uQ38LIpR-121" value="+ descripcion: string" style="text;strokeColor=none;fillColor=none;align=left;verticalAlign=top;spacingLeft=4;spacingRight=4;overflow=hidden;rotatable=0;points=[[0,0.5],[1,0.5]];portConstraint=eastwest;whiteSpace=wrap;html=1;" vertex="1" parent="Tr49al0P86a5uQ38LIpR-113">
          <mxGeometry y="52" width="160" height="26" as="geometry" />
        </mxCell>
        <mxCell id="Tr49al0P86a5uQ38LIpR-129" value="+&amp;nbsp;&lt;span style=&quot;text-align: center;&quot;&gt;fecha_incio&lt;/span&gt;: date" style="text;strokeColor=none;fillColor=none;align=left;verticalAlign=top;spacingLeft=4;spacingRight=4;overflow=hidden;rotatable=0;points=[[0,0.5],[1,0.5]];portConstraint=eastwest;whiteSpace=wrap;html=1;" vertex="1" parent="Tr49al0P86a5uQ38LIpR-113">
          <mxGeometry y="78" width="160" height="26" as="geometry" />
        </mxCell>
        <mxCell id="Tr49al0P86a5uQ38LIpR-130" value="+&amp;nbsp;&lt;span style=&quot;text-align: center;&quot;&gt;fecha_fin&lt;/span&gt;: date" style="text;strokeColor=none;fillColor=none;align=left;verticalAlign=top;spacingLeft=4;spacingRight=4;overflow=hidden;rotatable=0;points=[[0,0.5],[1,0.5]];portConstraint=eastwest;whiteSpace=wrap;html=1;" vertex="1" parent="Tr49al0P86a5uQ38LIpR-113">
          <mxGeometry y="104" width="160" height="26" as="geometry" />
        </mxCell>
        <mxCell id="Tr49al0P86a5uQ38LIpR-122" value="+ personajes_inv: string" style="text;strokeColor=none;fillColor=none;align=left;verticalAlign=top;spacingLeft=4;spacingRight=4;overflow=hidden;rotatable=0;points=[[0,0.5],[1,0.5]];portConstraint=eastwest;whiteSpace=wrap;html=1;" vertex="1" parent="Tr49al0P86a5uQ38LIpR-113">
          <mxGeometry y="130" width="160" height="26" as="geometry" />
        </mxCell>
        <mxCell id="Tr49al0P86a5uQ38LIpR-132" value="+ comics_rel: string" style="text;strokeColor=none;fillColor=none;align=left;verticalAlign=top;spacingLeft=4;spacingRight=4;overflow=hidden;rotatable=0;points=[[0,0.5],[1,0.5]];portConstraint=eastwest;whiteSpace=wrap;html=1;" vertex="1" parent="Tr49al0P86a5uQ38LIpR-113">
          <mxGeometry y="156" width="160" height="26" as="geometry" />
        </mxCell>
        <mxCell id="Tr49al0P86a5uQ38LIpR-115" value="" style="line;strokeWidth=1;fillColor=none;align=left;verticalAlign=middle;spacingTop=-1;spacingLeft=3;spacingRight=3;rotatable=0;labelPosition=right;points=[];portConstraint=eastwest;strokeColor=inherit;" vertex="1" parent="Tr49al0P86a5uQ38LIpR-113">
          <mxGeometry y="182" width="160" height="8" as="geometry" />
        </mxCell>
        <mxCell id="Tr49al0P86a5uQ38LIpR-133" value="+&amp;nbsp;&lt;span style=&quot;text-align: center; text-decoration-line: underline;&quot;&gt;id_comic&lt;/span&gt;: int (FK)" style="text;strokeColor=none;fillColor=none;align=left;verticalAlign=top;spacingLeft=4;spacingRight=4;overflow=hidden;rotatable=0;points=[[0,0.5],[1,0.5]];portConstraint=eastwest;whiteSpace=wrap;html=1;" vertex="1" parent="Tr49al0P86a5uQ38LIpR-113">
          <mxGeometry y="190" width="160" height="26" as="geometry" />
        </mxCell>
        <mxCell id="Tr49al0P86a5uQ38LIpR-128" value="+&amp;nbsp;&lt;span style=&quot;text-align: center; text-decoration-line: underline;&quot;&gt;id_evento&lt;/span&gt;: int (PK)" style="text;strokeColor=none;fillColor=none;align=left;verticalAlign=top;spacingLeft=4;spacingRight=4;overflow=hidden;rotatable=0;points=[[0,0.5],[1,0.5]];portConstraint=eastwest;whiteSpace=wrap;html=1;" vertex="1" parent="Tr49al0P86a5uQ38LIpR-113">
          <mxGeometry y="216" width="160" height="26" as="geometry" />
        </mxCell>
        <mxCell id="Tr49al0P86a5uQ38LIpR-134" value="+&amp;nbsp;&lt;span style=&quot;text-align: center; text-decoration-line: underline;&quot;&gt;id_personaje&lt;/span&gt;: int (FK)" style="text;strokeColor=none;fillColor=none;align=left;verticalAlign=top;spacingLeft=4;spacingRight=4;overflow=hidden;rotatable=0;points=[[0,0.5],[1,0.5]];portConstraint=eastwest;whiteSpace=wrap;html=1;" vertex="1" parent="Tr49al0P86a5uQ38LIpR-113">
          <mxGeometry y="242" width="160" height="26" as="geometry" />
        </mxCell>
        <mxCell id="Tr49al0P86a5uQ38LIpR-117" value="incluye" style="endArrow=open;html=1;endSize=12;startArrow=diamondThin;startSize=14;startFill=0;edgeStyle=orthogonalEdgeStyle;rounded=0;" edge="1" parent="1" source="Tr49al0P86a5uQ38LIpR-133" target="Tr49al0P86a5uQ38LIpR-83">
          <mxGeometry relative="1" as="geometry">
            <mxPoint x="720.0000000000002" y="948" as="sourcePoint" />
            <mxPoint x="760" y="770" as="targetPoint" />
            <Array as="points">
              <mxPoint x="910" y="910" />
              <mxPoint x="910" y="633" />
            </Array>
          </mxGeometry>
        </mxCell>
        <mxCell id="Tr49al0P86a5uQ38LIpR-125" value="n" style="edgeLabel;resizable=0;html=1;align=right;verticalAlign=top;" connectable="0" vertex="1" parent="1">
          <mxGeometry x="930.0033333333332" y="610" as="geometry" />
        </mxCell>
        <mxCell id="Tr49al0P86a5uQ38LIpR-127" value="n" style="edgeLabel;resizable=0;html=1;align=right;verticalAlign=top;" connectable="0" vertex="1" parent="1">
          <mxGeometry x="414.0014285714284" y="890" as="geometry" />
        </mxCell>
        <mxCell id="Tr49al0P86a5uQ38LIpR-135" value="incluye" style="endArrow=open;html=1;endSize=12;startArrow=diamondThin;startSize=14;startFill=0;edgeStyle=orthogonalEdgeStyle;rounded=0;" edge="1" parent="1" source="Tr49al0P86a5uQ38LIpR-67" target="Tr49al0P86a5uQ38LIpR-134">
          <mxGeometry relative="1" as="geometry">
            <mxPoint x="440" y="700" as="sourcePoint" />
            <mxPoint x="600" y="700" as="targetPoint" />
            <Array as="points">
              <mxPoint x="130" y="987" />
            </Array>
          </mxGeometry>
        </mxCell>
        <mxCell id="Tr49al0P86a5uQ38LIpR-136" value="n" style="edgeLabel;resizable=0;html=1;align=left;verticalAlign=top;" connectable="0" vertex="1" parent="Tr49al0P86a5uQ38LIpR-135">
          <mxGeometry x="-1" relative="1" as="geometry">
            <mxPoint x="-30" y="10" as="offset" />
          </mxGeometry>
        </mxCell>
        <mxCell id="Tr49al0P86a5uQ38LIpR-137" value="n" style="edgeLabel;resizable=0;html=1;align=right;verticalAlign=top;" connectable="0" vertex="1" parent="Tr49al0P86a5uQ38LIpR-135">
          <mxGeometry x="1" relative="1" as="geometry">
            <mxPoint x="-20" as="offset" />
          </mxGeometry>
        </mxCell>
      </root>
    </mxGraphModel>
  </diagram>
</mxfile>
